<svg aria-hidden="true" xmlns="http://www.w3.org/2000/svg" xmlns:xlink="http://www.w3.org/1999/xlink"><symbol viewBox="0 0 27 44" id="arrow" xmlns="http://www.w3.org/2000/svg">
<path d="M1 1L25 22L1 43" stroke-width="2"/>
</symbol><symbol viewBox="0 0 25 25" id="cart" xmlns="http://www.w3.org/2000/svg">
<g clip-path="url(#bclip0_20_8)">
<path fill-rule="evenodd" clip-rule="evenodd" d="M8.75865 16.9116L8.125 16.25L7.62024 15.3076L5.33476 2.8633C5.28452 2.59056 5.09727 2.36303 4.83902 2.26171L1.09578 0.791145C0.683232 0.629627 0.217699 0.832266 0.0556768 1.24431C-0.106065 1.65659 0.096518 2.1224 0.508846 2.28442L3.83718 3.59195L6.163 16.2547C6.2331 16.6353 6.56486 16.9118 6.95207 16.9118H7.33788L6.45689 19.3589C6.38315 19.5639 6.41353 19.7916 6.53902 19.9697C6.66434 20.1478 6.86815 20.2538 7.08573 20.2538H7.70366C7.32076 20.6799 7.08573 21.241 7.08573 21.858C7.08573 23.185 8.16545 24.2644 9.49211 24.2644C10.8188 24.2644 11.8985 23.185 11.8985 21.858C11.8985 21.241 11.6635 20.6799 11.2806 20.2538H16.5271C16.1441 20.6799 15.9091 21.241 15.9091 21.858C15.9091 23.185 16.9885 24.2644 18.3155 24.2644C19.6425 24.2644 20.7219 23.185 20.7219 21.858C20.7219 21.241 20.4869 20.6799 20.1041 20.2538H20.8556C21.2248 20.2538 21.524 19.9545 21.524 19.5854C21.524 19.2161 21.2248 18.9169 20.8556 18.9169H8.03682L8.75865 16.9116ZM8.42263 21.8583C8.42263 22.4482 8.90232 22.9278 9.49217 22.9278C10.082 22.9278 10.5616 22.4482 10.5616 21.8583C10.5616 21.2685 10.082 20.7888 9.49217 20.7888C8.90232 20.7888 8.42263 21.2685 8.42263 21.8583ZM17.246 21.8583C17.246 22.4482 17.7256 22.9278 18.3155 22.9278C18.9053 22.9278 19.385 22.4482 19.385 21.8583C19.385 21.2685 18.9053 20.7888 18.3155 20.7888C17.7256 20.7888 17.246 21.2685 17.246 21.8583Z"/>
<path d="M24.8557 5.2232C24.7126 5.0181 24.4823 4.89132 24.2322 4.88063L8.72447 4.21218C8.27952 4.19271 7.9077 4.53623 7.88868 4.9791C7.86977 5.42181 8.21272 5.79587 8.65554 5.81489L23.1134 6.43814L20.2707 15.3076H7.62024L8.125 16.25L8.75865 16.9116H20.8555C21.2044 16.9116 21.513 16.6862 21.6193 16.3544L24.9615 5.92661C25.0382 5.68862 24.9988 5.42841 24.8557 5.2232Z"/>
</g>
<defs>
<clipPath id="bclip0_20_8">
<rect width="25" height="25"/>
</clipPath>
</defs>
</symbol><symbol viewBox="0 0 60 60" id="contacts" xmlns="http://www.w3.org/2000/svg">
<path d="M47.3748 37.1677C46.1465 35.8887 44.6649 35.2049 43.0946 35.2049C41.5371 35.2049 40.0428 35.8761 38.7638 37.1551L34.7622 41.144C34.4329 40.9667 34.1037 40.8021 33.7871 40.6375C33.3312 40.4095 32.9007 40.1942 32.5335 39.9663C28.7851 37.5856 25.3787 34.4831 22.1116 30.4688C20.5287 28.468 19.4649 26.7838 18.6925 25.0743C19.7309 24.1245 20.6933 23.1368 21.6304 22.187C21.9849 21.8325 22.3395 21.4652 22.6941 21.1107C25.3534 18.4514 25.3534 15.007 22.6941 12.3477L19.237 8.89059C18.8444 8.49803 18.4392 8.0928 18.0593 7.68758C17.2995 6.90246 16.5017 6.092 15.6786 5.33221C14.4503 4.11653 12.9813 3.4707 11.4364 3.4707C9.89149 3.4707 8.39722 4.11653 7.13089 5.33221C7.11823 5.34487 7.11823 5.34487 7.10556 5.35753L2.80004 9.70104C1.17914 11.3219 0.25472 13.2974 0.0521076 15.5895C-0.251811 19.2872 0.837232 22.7316 1.67301 24.9856C3.72446 30.5195 6.78898 35.6481 11.3604 41.144C16.9069 47.7669 23.5805 52.9968 31.2038 56.6819C34.1164 58.0621 38.004 59.6957 42.3475 59.9743C42.6134 59.987 42.892 59.9996 43.1453 59.9996C46.0705 59.9996 48.5272 58.9486 50.452 56.8591C50.4647 56.8338 50.49 56.8212 50.5027 56.7958C51.1612 55.998 51.921 55.2762 52.7187 54.5038C53.2633 53.9846 53.8204 53.4401 54.365 52.8702C55.6186 51.5659 56.2771 50.0463 56.2771 48.4887C56.2771 46.9185 55.606 45.4115 54.327 44.1452L47.3748 37.1677ZM51.9083 50.5022C51.8956 50.5022 51.8956 50.5148 51.9083 50.5022C51.4144 51.034 50.9079 51.5152 50.3634 52.0471C49.5403 52.8322 48.7045 53.6553 47.9194 54.5797C46.6404 55.9474 45.1334 56.5932 43.158 56.5932C42.968 56.5932 42.7654 56.5932 42.5754 56.5805C38.8144 56.3399 35.3194 54.871 32.6981 53.6173C25.5307 50.1476 19.237 45.2216 14.0071 38.9786C9.68887 33.774 6.80164 28.9619 4.88949 23.7953C3.7118 20.6421 3.28125 18.1854 3.4712 15.8681C3.59783 14.3865 4.16768 13.1581 5.21873 12.1071L9.53691 7.78889C10.1574 7.20637 10.8159 6.88979 11.4617 6.88979C12.2595 6.88979 12.9054 7.371 13.3106 7.77622C13.3232 7.78889 13.3359 7.80155 13.3486 7.81421C14.121 8.53602 14.8555 9.28315 15.628 10.0809C16.0205 10.4862 16.4257 10.8914 16.831 11.3093L20.288 14.7664C21.6304 16.1087 21.6304 17.3497 20.288 18.692C19.9208 19.0592 19.5662 19.4264 19.199 19.781C18.1353 20.8701 17.1222 21.8831 16.0205 22.8709C15.9952 22.8962 15.9699 22.9089 15.9572 22.9342C14.8682 24.0232 15.0708 25.0869 15.2987 25.8087C15.3114 25.8467 15.324 25.8847 15.3367 25.9227C16.2358 28.1008 17.5021 30.1523 19.4269 32.5963L19.4396 32.6089C22.9347 36.9145 26.6197 40.2702 30.6846 42.8409C31.2038 43.1701 31.7357 43.4361 32.2422 43.6893C32.6981 43.9173 33.1286 44.1325 33.4959 44.3605C33.5465 44.3858 33.5972 44.4238 33.6478 44.4491C34.0784 44.6644 34.4836 44.7657 34.9015 44.7657C35.9525 44.7657 36.611 44.1072 36.8263 43.8919L41.1572 39.5611C41.5877 39.1305 42.2715 38.6113 43.0693 38.6113C43.8544 38.6113 44.5003 39.1052 44.8928 39.5358C44.9055 39.5484 44.9055 39.5484 44.9182 39.5611L51.8956 46.5386C53.1999 47.8302 53.2 49.1599 51.9083 50.5022Z"/>
<path d="M32.3813 14.2722C35.6991 14.8294 38.7129 16.3996 41.119 18.8056C43.525 21.2117 45.0826 24.2255 45.6524 27.5433C45.7917 28.3791 46.5135 28.9616 47.3366 28.9616C47.438 28.9616 47.5266 28.9489 47.6279 28.9363C48.565 28.7843 49.1855 27.8979 49.0335 26.9608C48.3497 22.9465 46.4502 19.2868 43.5503 16.387C40.6504 13.4871 36.9907 11.5876 32.9765 10.9037C32.0394 10.7518 31.1656 11.3723 31.001 12.2967C30.8364 13.2211 31.4442 14.1202 32.3813 14.2722Z"/>
<path d="M32.3813 14.2722C35.6991 14.8294 38.7129 16.3996 41.119 18.8056C43.525 21.2117 45.0826 24.2255 45.6524 27.5433C45.7917 28.3791 46.5135 28.9616 47.3366 28.9616C47.438 28.9616 47.5266 28.9489 47.6279 28.9363C48.565 28.7843 49.1855 27.8979 49.0335 26.9608C48.3497 22.9465 46.4502 19.2868 43.5503 16.387C40.6504 13.4871 36.9907 11.5876 32.9765 10.9037C32.0394 10.7518 31.1656 11.3723 31.001 12.2967C30.8364 13.2211 31.4442 14.1202 32.3813 14.2722Z"/>
<path d="M59.8864 26.467C58.7593 19.8568 55.6442 13.8417 50.8574 9.05499C46.0707 4.26827 40.0556 1.1531 33.4454 0.0260629C32.521 -0.13856 31.6472 0.494605 31.4826 1.41903C31.3306 2.35611 31.9511 3.22988 32.8882 3.3945C38.7893 4.3949 44.1712 7.19349 48.4514 11.461C52.7316 15.7412 55.5175 21.1231 56.5179 27.0242C56.6572 27.86 57.379 28.4425 58.2021 28.4425C58.3034 28.4425 58.3921 28.4298 58.4934 28.4172C59.4178 28.2779 60.051 27.3914 59.8864 26.467Z"/>
<path d="M59.8864 26.467C58.7593 19.8568 55.6442 13.8417 50.8574 9.05499C46.0707 4.26827 40.0556 1.1531 33.4454 0.0260629C32.521 -0.13856 31.6472 0.494605 31.4826 1.41903C31.3306 2.35611 31.9511 3.22988 32.8882 3.3945C38.7893 4.3949 44.1712 7.19349 48.4514 11.461C52.7316 15.7412 55.5175 21.1231 56.5179 27.0242C56.6572 27.86 57.379 28.4425 58.2021 28.4425C58.3034 28.4425 58.3921 28.4298 58.4934 28.4172C59.4178 28.2779 60.051 27.3914 59.8864 26.467Z"/>
</symbol><symbol viewBox="0 0 21 21" id="instagram" xmlns="http://www.w3.org/2000/svg">
<path d="M14.25 21H6.75C4.95979 21 3.2429 20.2888 1.97703 19.023C0.711159 17.7571 0 16.0402 0 14.25V6.75C0 4.95979 0.711159 3.2429 1.97703 1.97703C3.2429 0.711159 4.95979 0 6.75 0H14.25C16.0402 0 17.7571 0.711159 19.023 1.97703C20.2888 3.2429 21 4.95979 21 6.75V14.25C21 16.0402 20.2888 17.7571 19.023 19.023C17.7571 20.2888 16.0402 21 14.25 21ZM6.75 1.5C5.35761 1.5 4.02226 2.05312 3.03769 3.03769C2.05312 4.02226 1.5 5.35761 1.5 6.75V14.25C1.5 15.6424 2.05312 16.9777 3.03769 17.9623C4.02226 18.9469 5.35761 19.5 6.75 19.5H14.25C15.6424 19.5 16.9777 18.9469 17.9623 17.9623C18.9469 16.9777 19.5 15.6424 19.5 14.25V6.75C19.5 5.35761 18.9469 4.02226 17.9623 3.03769C16.9777 2.05312 15.6424 1.5 14.25 1.5H6.75Z"/>
<path d="M10.5 15.75C9.72232 15.7564 8.95321 15.5872 8.25001 15.255C8.07376 15.1682 7.93862 15.0156 7.87365 14.8302C7.80868 14.6448 7.81907 14.4413 7.90259 14.2634C7.98611 14.0856 8.13609 13.9476 8.32027 13.8792C8.50445 13.8107 8.70813 13.8173 8.88751 13.8975C9.7014 14.2736 10.6231 14.3457 11.4856 14.1006C12.348 13.8556 13.0941 13.3096 13.5887 12.5618C14.0832 11.8139 14.2934 10.9136 14.1811 10.024C14.0689 9.13447 13.6417 8.31458 12.9769 7.71296C12.3121 7.11135 11.4538 6.76783 10.5575 6.74467C9.66118 6.72152 8.78625 7.02027 8.09129 7.58676C7.39633 8.15325 6.92734 8.94999 6.76933 9.83256C6.61133 10.7151 6.77476 11.6251 7.23001 12.3975C7.28428 12.4829 7.32071 12.5783 7.33713 12.6781C7.35355 12.7779 7.3496 12.88 7.32554 12.9783C7.30147 13.0765 7.25778 13.1689 7.1971 13.2498C7.13641 13.3308 7.05998 13.3986 6.97241 13.4492C6.88483 13.4998 6.78792 13.5322 6.68751 13.5444C6.5871 13.5566 6.48525 13.5483 6.38811 13.5202C6.29096 13.492 6.20052 13.4444 6.12222 13.3804C6.04393 13.3163 5.9794 13.2371 5.93251 13.1475C5.47282 12.3417 5.23716 11.4276 5.25001 10.5C5.25001 9.46165 5.55792 8.44662 6.13479 7.58326C6.71167 6.7199 7.53161 6.04699 8.49092 5.64963C9.45023 5.25227 10.5058 5.14831 11.5242 5.35088C12.5426 5.55345 13.4781 6.05347 14.2123 6.78769C14.9465 7.52192 15.4466 8.45738 15.6491 9.47578C15.8517 10.4942 15.7477 11.5498 15.3504 12.5091C14.953 13.4684 14.2801 14.2883 13.4168 14.8652C12.5534 15.4421 11.5384 15.75 10.5 15.75Z"/>
<path d="M16.1252 6.00098C16.7466 6.00098 17.2502 5.4973 17.2502 4.87598C17.2502 4.25466 16.7466 3.75098 16.1252 3.75098C15.5039 3.75098 15.0002 4.25466 15.0002 4.87598C15.0002 5.4973 15.5039 6.00098 16.1252 6.00098Z"/>
</symbol><symbol viewBox="0 0 25 25" id="like" xmlns="http://www.w3.org/2000/svg">
<g clip-path="url(#eclip0_20_2)">
<path fill-rule="evenodd" clip-rule="evenodd" d="M14.8997 2.16105C15.8067 1.76735 16.7847 1.56365 17.7734 1.5625C19.6894 1.56457 21.5263 2.3266 22.8811 3.6814C24.2359 5.03619 24.9979 6.87309 25 8.78906C25 15.9844 13.3945 23.0469 12.9141 23.3242C12.7926 23.3972 12.6535 23.4358 12.5117 23.4358L12.5 21.7344C14.5195 20.4414 23.4375 14.418 23.4375 8.78906C23.4377 7.58486 23.0541 6.41194 22.3423 5.44057C21.6306 4.46921 20.6278 3.74995 19.4796 3.38723C18.3313 3.0245 17.0973 3.03718 15.9567 3.42342C14.8161 3.80967 13.8283 4.54937 13.1367 5.53516C13.0646 5.63752 12.9689 5.72105 12.8578 5.77871C12.7466 5.83636 12.6233 5.86646 12.498 5.86646L12.5 3.85156C13.1761 3.13007 13.9927 2.55474 14.8997 2.16105Z"/>
<path d="M12.5 3.85156C11.5093 2.79418 10.2235 2.05905 8.80974 1.74161C7.39594 1.42417 5.91936 1.53907 4.57168 2.0714C3.224 2.60373 2.06748 3.52891 1.25224 4.72682C0.437008 5.92473 0.000713398 7.34006 0 8.78906C0 15.9844 11.6055 23.0469 12.1094 23.3242C12.2309 23.3972 12.37 23.4358 12.5117 23.4358L12.5 21.7344C10.4805 20.4453 1.5625 14.4219 1.5625 8.78906C1.5635 7.58592 1.9476 6.41434 2.65912 5.44414C3.37064 4.47393 4.37263 3.7555 5.51986 3.39297C6.66708 3.03044 7.89995 3.04263 9.03978 3.42779C10.1796 3.81295 11.1672 4.55106 11.8594 5.53516C11.9315 5.63752 12.0272 5.72105 12.1383 5.77871C12.2495 5.83636 12.3728 5.86646 12.498 5.86646L12.5 3.85156Z"/>
</g>
<defs>
<clipPath id="eclip0_20_2">
<rect width="25" height="25"/>
</clipPath>
</defs>
</symbol><symbol viewBox="0 0 53 60" id="location" xmlns="http://www.w3.org/2000/svg">
<path fill-rule="evenodd" clip-rule="evenodd" d="M36.3839 39.6428L34.3065 42.9022C44.5818 44.1803 49.2187 47.4591 49.2187 49.4531C49.2187 52.3948 40.2758 56.4844 26.3672 56.4844C12.5398 56.4844 3.51562 52.42 3.51562 49.4531C3.51562 47.4591 8.1525 44.1803 18.4275 42.9022L16.3502 39.6429C10.2946 40.5735 0 43.3467 0 49.4531C0 51.6791 1.45289 54.8514 8.37445 57.3233C13.2075 59.0494 19.5974 60 26.3672 60C39.0264 60 52.7344 56.4291 52.7344 49.4531C52.7344 43.3457 42.4519 40.5754 36.3839 39.6428Z"/>
<path fill-rule="evenodd" clip-rule="evenodd" d="M36.3839 39.6428C42.7686 29.6241 41.966 30.874 42.15 30.6128C44.4745 27.3341 45.7031 23.4752 45.7031 19.4531C45.7031 8.78672 37.0475 0 26.3672 0C15.7216 0 7.03125 8.76937 7.03125 19.4531C7.03125 23.4727 8.28562 27.4325 10.6863 30.7554L16.3502 39.6429L18.4275 42.9022L24.8848 53.0346C25.2075 53.5411 25.7665 53.8477 26.3671 53.8477C26.9677 53.8477 27.5268 53.541 27.8494 53.0346L34.3065 42.9022L36.3839 39.6428ZM13.5623 28.7329C13.5834 28.7619 13.6036 28.7914 13.6229 28.8217L26.3672 48.819C40.0134 27.4061 39.13 28.7786 39.2993 28.5552C41.1889 25.8793 42.1875 22.7327 42.1875 19.4531C42.1875 10.6651 35.0905 3.51562 26.3672 3.51562C17.6257 3.51562 10.5469 10.662 10.5469 19.4531C10.5469 22.7275 11.5646 25.9846 13.5623 28.7329Z"/>
<path fill-rule="evenodd" clip-rule="evenodd" d="M36.3839 39.6428C42.7686 29.6241 41.966 30.874 42.15 30.6128C44.4745 27.3341 45.7031 23.4752 45.7031 19.4531C45.7031 8.78672 37.0475 0 26.3672 0C15.7216 0 7.03125 8.76937 7.03125 19.4531C7.03125 23.4727 8.28562 27.4325 10.6863 30.7554L16.3502 39.6429L18.4275 42.9022L24.8848 53.0346C25.2075 53.5411 25.7665 53.8477 26.3671 53.8477C26.9677 53.8477 27.5268 53.541 27.8494 53.0346L34.3065 42.9022L36.3839 39.6428ZM13.5623 28.7329C13.5834 28.7619 13.6036 28.7914 13.6229 28.8217L26.3672 48.819C40.0134 27.4061 39.13 28.7786 39.2993 28.5552C41.1889 25.8793 42.1875 22.7327 42.1875 19.4531C42.1875 10.6651 35.0905 3.51562 26.3672 3.51562C17.6257 3.51562 10.5469 10.662 10.5469 19.4531C10.5469 22.7275 11.5646 25.9846 13.5623 28.7329Z"/>
<path d="M26.3672 10.6641C21.5209 10.6641 17.5781 14.6068 17.5781 19.4531C17.5781 24.2994 21.5209 28.2422 26.3672 28.2422C31.2135 28.2422 35.1562 24.2994 35.1562 19.4531C35.1562 14.6068 31.2135 10.6641 26.3672 10.6641ZM26.3672 24.7266C23.4594 24.7266 21.0937 22.3609 21.0937 19.4531C21.0937 16.5454 23.4594 14.1797 26.3672 14.1797C29.275 14.1797 31.6406 16.5454 31.6406 19.4531C31.6406 22.3609 29.275 24.7266 26.3672 24.7266Z"/>
</symbol><symbol viewBox="0 0 15 15" id="lupa" xmlns="http://www.w3.org/2000/svg">
<path d="M12.9877 12.3248L10.1897 9.52687C10.8516 8.71875 11.25 7.68656 11.25 6.5625C11.25 3.97781 9.14719 1.875 6.5625 1.875C3.97781 1.875 1.875 3.97781 1.875 6.5625C1.875 9.14719 3.97781 11.25 6.5625 11.25C7.68656 11.25 8.71875 10.8516 9.52687 10.1897L12.3248 12.9877C12.5081 13.1709 12.8044 13.1709 12.9877 12.9877C13.1709 12.8044 13.1709 12.5081 12.9877 12.3248ZM2.8125 6.5625C2.8125 4.49484 4.49484 2.8125 6.5625 2.8125C8.63016 2.8125 10.3125 4.49484 10.3125 6.5625C10.3125 8.63016 8.63016 10.3125 6.5625 10.3125C4.49484 10.3125 2.8125 8.63016 2.8125 6.5625Z"/>
</symbol><symbol viewBox="0 0 69 60" id="schedule" xmlns="http://www.w3.org/2000/svg">
<path fill-rule="evenodd" clip-rule="evenodd" d="M12.0002 58V52H16.0002V56H64.2668V38.6597C65.3558 36.6065 67.6803 31.6 68.2668 28V58C68.2668 59.1045 67.3714 60 66.2668 60H14.0002C12.8956 60 12.0002 59.1045 12.0002 58Z"/>
<path fill-rule="evenodd" clip-rule="evenodd" d="M2.00017 52H12.0002H16.0002H54.2668C54.7347 52 55.1878 51.836 55.5472 51.5364C57.9515 49.5339 61.6756 44.7661 64.2668 38.6597C65.3558 36.6065 67.6803 31.6 68.2668 28V16H64.2668H16.0002H12.0002V18C12.0002 32.74 5.87417 44.0795 0.719767 48.4636C0.0728335 49.0027 -0.167033 49.8891 0.1195 50.6809C0.4063 51.4727 1.15803 52 2.00017 52ZM64.2314 19.9987H15.9659C15.6359 29.9576 12.7004 40.1625 6.54937 48H53.4826C58.9112 42.6684 63.7807 32.686 64.2314 19.9987Z"/>
<path fill-rule="evenodd" clip-rule="evenodd" d="M2.00017 52H12.0002H16.0002H54.2668C54.7347 52 55.1878 51.836 55.5472 51.5364C57.9515 49.5339 61.6756 44.7661 64.2668 38.6597C65.3558 36.6065 67.6803 31.6 68.2668 28V16H64.2668H16.0002H12.0002V18C12.0002 32.74 5.87417 44.0795 0.719767 48.4636C0.0728335 49.0027 -0.167033 49.8891 0.1195 50.6809C0.4063 51.4727 1.15803 52 2.00017 52ZM64.2314 19.9987H15.9659C15.6359 29.9576 12.7004 40.1625 6.54937 48H53.4826C58.9112 42.6684 63.7807 32.686 64.2314 19.9987Z"/>
<path d="M42.1335 4V2C42.1335 0.895467 41.238 0 40.1335 0C39.029 0 38.1335 0.895467 38.1335 2V4V8V10C38.1335 11.1045 39.029 12 40.1335 12C41.238 12 42.1335 11.1045 42.1335 10V8V4Z"/>
<path d="M42.1335 4V2C42.1335 0.895467 41.238 0 40.1335 0C39.029 0 38.1335 0.895467 38.1335 2V4V8V10C38.1335 11.1045 39.029 12 40.1335 12C41.238 12 42.1335 11.1045 42.1335 10V8V4Z"/>
<path fill-rule="evenodd" clip-rule="evenodd" d="M12.0002 6V16H16.0002V8H24.1335V4H14.0002C12.8956 4 12.0002 4.89547 12.0002 6ZM28.1335 4V8H38.1335V4H28.1335ZM52.2668 8H42.1335V4H52.2668V8ZM56.2668 8H64.2668V16H68.2668V6C68.2668 4.89547 67.3714 4 66.2668 4H56.2668V8Z"/>
<path d="M56.2668 4V2C56.2668 0.895467 55.3714 0 54.2668 0C53.1623 0 52.2668 0.895467 52.2668 2V4V8V10C52.2668 11.1045 53.1623 12 54.2668 12C55.3714 12 56.2668 11.1045 56.2668 10V8V4Z"/>
<path d="M56.2668 4V2C56.2668 0.895467 55.3714 0 54.2668 0C53.1623 0 52.2668 0.895467 52.2668 2V4V8V10C52.2668 11.1045 53.1623 12 54.2668 12C55.3714 12 56.2668 11.1045 56.2668 10V8V4Z"/>
<path d="M28.1335 4V2C28.1335 0.895467 27.238 0 26.1335 0C25.029 0 24.1335 0.895467 24.1335 2V4V8V10C24.1335 11.1045 25.029 12 26.1335 12C27.238 12 28.1335 11.1045 28.1335 10V8V4Z"/>
<path d="M28.1335 4V2C28.1335 0.895467 27.238 0 26.1335 0C25.029 0 24.1335 0.895467 24.1335 2V4V8V10C24.1335 11.1045 25.029 12 26.1335 12C27.238 12 28.1335 11.1045 28.1335 10V8V4Z"/>
</symbol><symbol viewBox="0 0 22 18" id="telegram" xmlns="http://www.w3.org/2000/svg">
<path d="M20.9467 0.492795C20.6869 0.174978 20.2976 0 19.8506 0C19.6076 0 19.3502 0.0511299 19.0856 0.152253L1.07652 7.02687C0.120797 7.3916 -0.00792014 7.93893 0.000358026 8.23273C0.00863619 8.52652 0.168194 9.06574 1.14307 9.37593C1.14891 9.37771 1.15476 9.3795 1.1606 9.38112L4.89617 10.4501L6.91637 16.227C7.19182 17.0146 7.81009 17.5038 8.53013 17.5038C8.98413 17.5038 9.43066 17.3136 9.82152 16.9539L12.1321 14.8264L15.4835 17.5249C15.4838 17.5252 15.4843 17.5254 15.4846 17.5257L15.5164 17.5514C15.5193 17.5536 15.5224 17.5561 15.5253 17.5583C15.8979 17.8473 16.3045 17.9998 16.7017 18C17.4777 18 18.0958 17.4256 18.2758 16.5367L21.2266 1.96647C21.3451 1.38164 21.2457 0.858333 20.9467 0.492795ZM6.14585 10.2471L13.3529 6.56524L8.86531 11.3336C8.79178 11.4117 8.73968 11.5073 8.71403 11.6114L7.84872 15.1164L6.14585 10.2471ZM8.97698 16.0368C8.94712 16.0642 8.91709 16.0887 8.88706 16.1113L9.68988 12.8597L11.1502 14.0357L8.97698 16.0368ZM20.0048 1.71894L17.054 16.2893C17.0256 16.4288 16.9349 16.7532 16.7017 16.7532C16.5864 16.7532 16.4416 16.6904 16.2934 16.5763L12.4959 13.5186C12.4954 13.5181 12.4947 13.5176 12.4941 13.5173L10.2345 11.6977L16.7241 4.80199C16.9318 4.58124 16.9507 4.24313 16.7687 4.00063C16.5866 3.75813 16.2566 3.68184 15.9867 3.81981L5.313 9.27269L1.52663 8.18939L19.5302 1.31688C19.6823 1.25877 19.7884 1.2466 19.8506 1.2466C19.8888 1.2466 19.9566 1.25114 19.9818 1.28214C20.0149 1.32256 20.0571 1.46037 20.0048 1.71894Z"/>
</symbol><symbol viewBox="0 0 25 25" id="viber" xmlns="http://www.w3.org/2000/svg">
<path d="M14.5938 10.2361H13.5159C13.5159 9.04387 13.0917 8.61961 11.8994 8.61961V7.54199C13.6845 7.54199 14.5938 8.45129 14.5938 10.2361Z"/>
<path d="M16.749 10.2353H15.6714C15.6714 7.83757 14.2974 6.46336 11.8994 6.46336V5.38574C14.8901 5.38574 16.749 7.24479 16.749 10.2353Z"/>
<path d="M18.9044 10.2355H17.8268C17.8268 6.69262 15.4423 4.30829 11.8994 4.30829V3.23047C16.0889 3.23047 18.9044 6.04597 18.9044 10.2355Z"/>
<path d="M6.51103 24.9999V21.282L5.35921 21.1473C2.60429 20.8104 0.449053 18.5474 0.233372 15.7657C0.112211 14.1221 0.0449219 12.4383 0.0449219 10.7746C0.0449219 9.11093 0.112211 7.43382 0.233372 5.78355C0.449053 3.00179 2.64474 0.731897 5.45354 0.388346C9.73066 -0.129449 14.0546 -0.129449 18.3319 0.388346C21.1472 0.731897 23.3431 3.00179 23.5586 5.78355C23.6866 7.42691 23.7472 9.11093 23.7472 10.7746C23.7472 12.4383 23.6799 14.1221 23.5586 15.7657C23.3498 18.5405 21.1943 20.8037 18.4463 21.1473C16.522 21.3853 14.586 21.5179 12.647 21.5447L6.51103 24.9999ZM11.8993 1.07545C9.78986 1.07584 7.68218 1.20411 5.58812 1.45926C3.28468 1.74223 1.48622 3.59456 1.31119 5.87116C1.18312 7.48769 1.12254 9.13776 1.12254 10.7746C1.12254 12.4113 1.18312 14.0683 1.31119 15.6848C1.48721 17.9566 3.23377 19.793 5.49399 20.0831C6.02816 20.1504 6.5649 20.2088 7.10361 20.2581L7.59536 20.3053V23.1612L12.3642 20.4738H12.4988C14.4445 20.4521 16.3874 20.3216 18.3183 20.0831C20.5613 19.807 22.3124 17.9547 22.4876 15.6915C22.6155 14.075 22.6763 12.418 22.6763 10.7813C22.6763 9.14447 22.6155 7.4944 22.4876 5.87116C22.3124 3.59456 20.5141 1.74223 18.2038 1.45926C16.1119 1.2047 14.0066 1.07644 11.8993 1.07545Z"/>
<path d="M14.0142 17.7799H13.5157C8.46409 17.7799 4.35548 13.6713 4.35548 8.61963V8.12117C4.35292 7.2616 4.69489 6.43676 5.30523 5.83116L5.74982 5.38657C6.44343 4.69276 7.65583 4.69276 8.34964 5.38657L9.74397 6.78091C10.0901 7.12466 10.2841 7.59292 10.2827 8.08072C10.2811 8.56813 10.0875 9.03521 9.74397 9.38073L9.61591 9.5088C9.35208 9.77342 9.20428 10.132 9.20506 10.5055C9.20645 10.8789 9.35405 11.2366 9.61591 11.5024L10.6262 12.5128C11.1517 13.0382 12.1013 13.0382 12.6268 12.5128L12.7546 12.3849C13.4484 11.6911 14.6608 11.6911 15.3547 12.3849L16.7488 13.7857C17.4667 14.5038 17.4667 15.6677 16.7488 16.3858L16.3044 16.8303C15.6988 17.4405 14.874 17.7825 14.0142 17.7799ZM7.04963 5.92548C6.84776 5.92509 6.65379 6.005 6.51092 6.14767L6.06633 6.59226C5.65904 6.99659 5.43093 7.54734 5.4331 8.12117V8.61963C5.43685 13.0821 9.05352 16.6985 13.5157 16.7023H14.0142C14.5859 16.7029 15.1338 16.4748 15.5364 16.0692L15.981 15.6247C16.1242 15.4818 16.2046 15.288 16.2046 15.0857C16.2046 14.8835 16.1242 14.6897 15.981 14.5468L14.5936 13.1527C14.2916 12.8652 13.8177 12.8652 13.5157 13.1527L13.3879 13.2806C12.4148 14.2528 10.8382 14.2528 9.86513 13.2806L8.8548 12.2702C8.38891 11.801 8.12745 11.1668 8.12745 10.5055C8.12646 9.84623 8.38812 9.21359 8.8548 8.7477L8.98287 8.61963C9.12475 8.47617 9.20467 8.28259 9.20506 8.08072C9.20546 7.87885 9.12554 7.68488 8.98287 7.54201L7.58854 6.14767C7.44547 6.005 7.2517 5.92509 7.04963 5.92548Z"/>
</symbol></svg>