<svg width="53" height="60" viewBox="0 0 53 60" fill="none" xmlns="http://www.w3.org/2000/svg">
<path fill-rule="evenodd" clip-rule="evenodd" d="M36.5672 39.6428L34.4793 42.9022C44.8063 44.1803 49.4667 47.4591 49.4667 49.4531C49.4667 52.3948 40.4787 56.4844 26.5 56.4844C12.6029 56.4844 3.53333 52.42 3.53333 49.4531C3.53333 47.4591 8.19356 44.1803 18.5203 42.9022L16.4326 39.6429C10.3464 40.5735 0 43.3467 0 49.4531C0 51.6791 1.46021 54.8514 8.41664 57.3233C13.274 59.0494 19.6961 60 26.5 60C39.2229 60 53 56.4291 53 49.4531C53 43.3457 42.6657 40.5754 36.5672 39.6428Z" fill="white"/>
<path fill-rule="evenodd" clip-rule="evenodd" d="M36.5672 39.6428C42.9841 29.6241 42.1774 30.874 42.3623 30.6128C44.6986 27.3341 45.9333 23.4752 45.9333 19.4531C45.9333 8.78672 37.2341 0 26.5 0C15.8008 0 7.06667 8.76937 7.06667 19.4531C7.06667 23.4727 8.32736 27.4325 10.7402 30.7554L16.4326 39.6429L18.5203 42.9022L25.0101 53.0346C25.3345 53.5411 25.8963 53.8477 26.4999 53.8477C27.1035 53.8477 27.6654 53.541 27.9897 53.0346L34.4793 42.9022L36.5672 39.6428ZM13.6307 28.7329C13.6519 28.7619 13.6721 28.7914 13.6915 28.8217L26.5 48.819C40.215 27.4061 39.3271 28.7786 39.4973 28.5552C41.3964 25.8793 42.4 22.7327 42.4 19.4531C42.4 10.6651 35.2673 3.51562 26.5 3.51562C17.7145 3.51562 10.6 10.662 10.6 19.4531C10.6 22.7275 11.6229 25.9846 13.6307 28.7329Z" fill="white"/>
<path fill-rule="evenodd" clip-rule="evenodd" d="M36.5672 39.6428C42.9841 29.6241 42.1774 30.874 42.3623 30.6128C44.6986 27.3341 45.9333 23.4752 45.9333 19.4531C45.9333 8.78672 37.2341 0 26.5 0C15.8008 0 7.06667 8.76937 7.06667 19.4531C7.06667 23.4727 8.32736 27.4325 10.7402 30.7554L16.4326 39.6429L18.5203 42.9022L25.0101 53.0346C25.3345 53.5411 25.8963 53.8477 26.4999 53.8477C27.1035 53.8477 27.6654 53.541 27.9897 53.0346L34.4793 42.9022L36.5672 39.6428ZM13.6307 28.7329C13.6519 28.7619 13.6721 28.7914 13.6915 28.8217L26.5 48.819C40.215 27.4061 39.3271 28.7786 39.4973 28.5552C41.3964 25.8793 42.4 22.7327 42.4 19.4531C42.4 10.6651 35.2673 3.51562 26.5 3.51562C17.7145 3.51562 10.6 10.662 10.6 19.4531C10.6 22.7275 11.6229 25.9846 13.6307 28.7329Z" fill="#FFC700"/>
<path d="M26.5001 10.6641C21.6294 10.6641 17.6667 14.6068 17.6667 19.4531C17.6667 24.2994 21.6294 28.2422 26.5001 28.2422C31.3708 28.2422 35.3334 24.2994 35.3334 19.4531C35.3334 14.6068 31.3708 10.6641 26.5001 10.6641ZM26.5001 24.7266C23.5777 24.7266 21.2001 22.3609 21.2001 19.4531C21.2001 16.5454 23.5777 14.1797 26.5001 14.1797C29.4225 14.1797 31.8001 16.5454 31.8001 19.4531C31.8001 22.3609 29.4225 24.7266 26.5001 24.7266Z" fill="white"/>
</svg>
